<svg width="360" height="154" viewBox="0 0 360 154" fill="none" xmlns="http://www.w3.org/2000/svg">
<path d="M58.136 44.52C57.624 39.592 55.832 36.04 52.76 33.864C49.752 31.624 45.88 30.504 41.144 30.504C39.224 30.504 37.336 30.696 35.48 31.08C33.624 31.464 31.96 32.104 30.488 33C29.08 33.896 27.928 35.112 27.032 36.648C26.2 38.12 25.784 39.976 25.784 42.216C25.784 44.328 26.392 46.056 27.608 47.4C28.888 48.68 30.552 49.736 32.6 50.568C34.712 51.4 37.08 52.104 39.704 52.68C42.328 53.192 44.984 53.768 47.672 54.408C50.424 55.048 53.112 55.816 55.736 56.712C58.36 57.544 60.696 58.696 62.744 60.168C64.856 61.64 66.52 63.496 67.736 65.736C69.016 67.976 69.656 70.792 69.656 74.184C69.656 77.832 68.824 80.968 67.16 83.592C65.56 86.152 63.48 88.264 60.92 89.928C58.36 91.528 55.48 92.68 52.28 93.384C49.144 94.152 46.008 94.536 42.872 94.536C39.032 94.536 35.384 94.056 31.928 93.096C28.536 92.136 25.528 90.696 22.904 88.776C20.344 86.792 18.296 84.296 16.76 81.288C15.288 78.216 14.552 74.6 14.552 70.44H23.192C23.192 73.32 23.736 75.816 24.824 77.928C25.976 79.976 27.448 81.672 29.24 83.016C31.096 84.36 33.24 85.352 35.672 85.992C38.104 86.632 40.6 86.952 43.16 86.952C45.208 86.952 47.256 86.76 49.304 86.376C51.416 85.992 53.304 85.352 54.968 84.456C56.632 83.496 57.976 82.216 59 80.616C60.024 79.016 60.536 76.968 60.536 74.472C60.536 72.104 59.896 70.184 58.616 68.712C57.4 67.24 55.736 66.056 53.624 65.16C51.576 64.2 49.24 63.432 46.616 62.856C43.992 62.28 41.304 61.704 38.552 61.128C35.864 60.488 33.208 59.784 30.584 59.016C27.96 58.184 25.592 57.128 23.48 55.848C21.432 54.504 19.768 52.808 18.488 50.76C17.272 48.648 16.664 46.024 16.664 42.888C16.664 39.432 17.368 36.456 18.776 33.96C20.184 31.4 22.04 29.32 24.344 27.72C26.712 26.056 29.368 24.84 32.312 24.072C35.32 23.24 38.392 22.824 41.528 22.824C45.048 22.824 48.312 23.24 51.32 24.072C54.328 24.904 56.952 26.216 59.192 28.008C61.496 29.8 63.288 32.072 64.568 34.824C65.912 37.512 66.648 40.744 66.776 44.52H58.136ZM136.61 45.096C135.586 40.232 133.314 36.584 129.794 34.152C126.338 31.72 122.21 30.504 117.41 30.504C113.314 30.504 109.794 31.272 106.85 32.808C103.97 34.344 101.57 36.424 99.65 39.048C97.794 41.608 96.418 44.552 95.522 47.88C94.626 51.208 94.178 54.664 94.178 58.248C94.178 62.152 94.626 65.864 95.522 69.384C96.418 72.84 97.794 75.88 99.65 78.504C101.57 81.064 104.002 83.112 106.946 84.648C109.89 86.184 113.41 86.952 117.506 86.952C120.514 86.952 123.17 86.472 125.474 85.512C127.842 84.488 129.858 83.112 131.522 81.384C133.25 79.592 134.594 77.48 135.554 75.048C136.514 72.616 137.09 69.992 137.282 67.176H146.402C145.506 75.816 142.53 82.536 137.474 87.336C132.418 92.136 125.506 94.536 116.738 94.536C111.426 94.536 106.786 93.64 102.818 91.848C98.85 89.992 95.554 87.464 92.93 84.264C90.306 81.064 88.322 77.288 86.978 72.936C85.698 68.584 85.058 63.912 85.058 58.92C85.058 53.928 85.762 49.256 87.17 44.904C88.578 40.488 90.626 36.648 93.314 33.384C96.066 30.12 99.458 27.56 103.49 25.704C107.586 23.784 112.258 22.824 117.506 22.824C121.09 22.824 124.482 23.304 127.682 24.264C130.882 25.224 133.73 26.632 136.226 28.488C138.722 30.344 140.802 32.68 142.466 35.496C144.13 38.248 145.218 41.448 145.73 45.096H136.61ZM177.187 64.68H200.419L188.995 32.712H188.803L177.187 64.68ZM184.003 24.456H194.083L220.867 93H210.787L203.299 72.36H174.307L166.627 93H157.315L184.003 24.456ZM235.309 24.456H244.429V85.32H280.717V93H235.309V24.456ZM296.333 24.456H343.661V32.136H305.453V53.928H341.069V61.608H305.453V85.32H343.949V93H296.333V24.456Z" fill="black"/>
<path d="M4.48 134.168H11.968C12.8427 134.168 13.6 134.072 14.24 133.88C14.88 133.667 15.4133 133.389 15.84 133.048C16.2667 132.685 16.5867 132.269 16.8 131.8C17.0133 131.331 17.12 130.829 17.12 130.296C17.12 127.437 15.4027 126.008 11.968 126.008H4.48V134.168ZM2.304 124.152H11.968C12.928 124.152 13.8453 124.248 14.72 124.44C15.616 124.611 16.3947 124.92 17.056 125.368C17.7387 125.795 18.2827 126.371 18.688 127.096C19.0933 127.8 19.296 128.685 19.296 129.752C19.296 130.349 19.2 130.936 19.008 131.512C18.816 132.067 18.5387 132.579 18.176 133.048C17.8347 133.496 17.4187 133.88 16.928 134.2C16.4587 134.52 15.9253 134.744 15.328 134.872V134.936C16.8 135.128 17.9733 135.736 18.848 136.76C19.7227 137.763 20.16 139.011 20.16 140.504C20.16 140.867 20.128 141.283 20.064 141.752C20 142.2 19.872 142.669 19.68 143.16C19.488 143.629 19.2107 144.099 18.848 144.568C18.4853 145.037 17.9947 145.453 17.376 145.816C16.7787 146.157 16.032 146.445 15.136 146.68C14.2613 146.893 13.2053 147 11.968 147H2.304V124.152ZM4.48 145.144H11.968C12.7787 145.144 13.5467 145.08 14.272 144.952C14.9973 144.803 15.6373 144.547 16.192 144.184C16.7467 143.821 17.184 143.341 17.504 142.744C17.824 142.125 17.984 141.357 17.984 140.44C17.984 138.968 17.4613 137.869 16.416 137.144C15.392 136.397 13.9093 136.024 11.968 136.024H4.48V145.144ZM25.9837 124.152H28.1597V138.296C28.1597 139.619 28.3091 140.749 28.6077 141.688C28.9064 142.605 29.3437 143.363 29.9197 143.96C30.4957 144.536 31.1997 144.963 32.0317 145.24C32.8637 145.496 33.8024 145.624 34.8477 145.624C35.9144 145.624 36.8638 145.496 37.6958 145.24C38.5278 144.963 39.2318 144.536 39.8077 143.96C40.3838 143.363 40.8211 142.605 41.1198 141.688C41.4184 140.749 41.5678 139.619 41.5678 138.296V124.152H43.7437V138.776C43.7437 139.949 43.5731 141.069 43.2318 142.136C42.9118 143.181 42.3891 144.099 41.6637 144.888C40.9597 145.677 40.0424 146.307 38.9117 146.776C37.8024 147.224 36.4478 147.448 34.8477 147.448C33.2691 147.448 31.9144 147.224 30.7837 146.776C29.6744 146.307 28.7571 145.677 28.0317 144.888C27.3277 144.099 26.8051 143.181 26.4637 142.136C26.1437 141.069 25.9837 139.949 25.9837 138.776V124.152ZM51.698 139.48C51.6767 140.653 51.858 141.635 52.242 142.424C52.626 143.213 53.1487 143.843 53.81 144.312C54.4927 144.781 55.2927 145.123 56.21 145.336C57.1273 145.528 58.1087 145.624 59.154 145.624C59.7513 145.624 60.402 145.539 61.106 145.368C61.81 145.197 62.4607 144.931 63.058 144.568C63.6767 144.184 64.1887 143.704 64.594 143.128C64.9993 142.531 65.202 141.816 65.202 140.984C65.202 140.344 65.0527 139.789 64.754 139.32C64.4767 138.851 64.1033 138.456 63.634 138.136C63.186 137.816 62.6847 137.56 62.13 137.368C61.5753 137.155 61.0313 136.984 60.498 136.856L55.41 135.608C54.7487 135.437 54.098 135.224 53.458 134.968C52.8393 134.712 52.2953 134.371 51.826 133.944C51.3567 133.517 50.9727 132.995 50.674 132.376C50.3967 131.757 50.258 131 50.258 130.104C50.258 129.549 50.3647 128.899 50.578 128.152C50.7913 127.405 51.186 126.701 51.762 126.04C52.3593 125.379 53.17 124.824 54.194 124.376C55.218 123.907 56.53 123.672 58.13 123.672C59.2607 123.672 60.338 123.821 61.362 124.12C62.386 124.419 63.282 124.867 64.05 125.464C64.818 126.061 65.426 126.808 65.874 127.704C66.3433 128.579 66.578 129.603 66.578 130.776H64.402C64.3593 129.901 64.1567 129.144 63.794 128.504C63.4527 127.843 62.994 127.299 62.418 126.872C61.8633 126.424 61.2127 126.093 60.466 125.88C59.7407 125.645 58.9727 125.528 58.162 125.528C57.4153 125.528 56.69 125.613 55.986 125.784C55.3033 125.933 54.6953 126.189 54.162 126.552C53.65 126.893 53.234 127.352 52.914 127.928C52.594 128.504 52.434 129.219 52.434 130.072C52.434 130.605 52.5193 131.075 52.69 131.48C52.882 131.864 53.138 132.195 53.458 132.472C53.778 132.749 54.1407 132.973 54.546 133.144C54.9727 133.315 55.4207 133.453 55.89 133.56L61.458 134.936C62.2687 135.149 63.026 135.416 63.73 135.736C64.4553 136.035 65.0847 136.419 65.618 136.888C66.1727 137.336 66.5993 137.891 66.898 138.552C67.218 139.213 67.378 140.013 67.378 140.952C67.378 141.208 67.346 141.549 67.282 141.976C67.2393 142.403 67.1113 142.861 66.898 143.352C66.706 143.821 66.418 144.301 66.034 144.792C65.6713 145.283 65.1593 145.731 64.498 146.136C63.858 146.52 63.058 146.829 62.098 147.064C61.138 147.32 59.986 147.448 58.642 147.448C57.298 147.448 56.05 147.299 54.898 147C53.746 146.68 52.7647 146.2 51.954 145.56C51.1433 144.92 50.514 144.099 50.066 143.096C49.6393 142.093 49.458 140.888 49.522 139.48H51.698ZM73.5503 124.152H75.7263V147H73.5503V124.152ZM83.012 124.152H85.444L98.756 143.48H98.82V124.152H100.996V147H98.564L85.252 127.672H85.188V147H83.012V124.152ZM108.135 124.152H123.911V126.008H110.311V134.264H123.047V136.12H110.311V145.144H124.071V147H108.135V124.152ZM130.688 139.48C130.667 140.653 130.848 141.635 131.232 142.424C131.616 143.213 132.139 143.843 132.8 144.312C133.483 144.781 134.283 145.123 135.2 145.336C136.117 145.528 137.099 145.624 138.144 145.624C138.741 145.624 139.392 145.539 140.096 145.368C140.8 145.197 141.451 144.931 142.048 144.568C142.667 144.184 143.179 143.704 143.584 143.128C143.989 142.531 144.192 141.816 144.192 140.984C144.192 140.344 144.043 139.789 143.744 139.32C143.467 138.851 143.093 138.456 142.624 138.136C142.176 137.816 141.675 137.56 141.12 137.368C140.565 137.155 140.021 136.984 139.488 136.856L134.4 135.608C133.739 135.437 133.088 135.224 132.448 134.968C131.829 134.712 131.285 134.371 130.816 133.944C130.347 133.517 129.963 132.995 129.664 132.376C129.387 131.757 129.248 131 129.248 130.104C129.248 129.549 129.355 128.899 129.568 128.152C129.781 127.405 130.176 126.701 130.752 126.04C131.349 125.379 132.16 124.824 133.184 124.376C134.208 123.907 135.52 123.672 137.12 123.672C138.251 123.672 139.328 123.821 140.352 124.12C141.376 124.419 142.272 124.867 143.04 125.464C143.808 126.061 144.416 126.808 144.864 127.704C145.333 128.579 145.568 129.603 145.568 130.776H143.392C143.349 129.901 143.147 129.144 142.784 128.504C142.443 127.843 141.984 127.299 141.408 126.872C140.853 126.424 140.203 126.093 139.456 125.88C138.731 125.645 137.963 125.528 137.152 125.528C136.405 125.528 135.68 125.613 134.976 125.784C134.293 125.933 133.685 126.189 133.152 126.552C132.64 126.893 132.224 127.352 131.904 127.928C131.584 128.504 131.424 129.219 131.424 130.072C131.424 130.605 131.509 131.075 131.68 131.48C131.872 131.864 132.128 132.195 132.448 132.472C132.768 132.749 133.131 132.973 133.536 133.144C133.963 133.315 134.411 133.453 134.88 133.56L140.448 134.936C141.259 135.149 142.016 135.416 142.72 135.736C143.445 136.035 144.075 136.419 144.608 136.888C145.163 137.336 145.589 137.891 145.888 138.552C146.208 139.213 146.368 140.013 146.368 140.952C146.368 141.208 146.336 141.549 146.272 141.976C146.229 142.403 146.101 142.861 145.888 143.352C145.696 143.821 145.408 144.301 145.024 144.792C144.661 145.283 144.149 145.731 143.488 146.136C142.848 146.52 142.048 146.829 141.088 147.064C140.128 147.32 138.976 147.448 137.632 147.448C136.288 147.448 135.04 147.299 133.888 147C132.736 146.68 131.755 146.2 130.944 145.56C130.133 144.92 129.504 144.099 129.056 143.096C128.629 142.093 128.448 140.888 128.512 139.48H130.688ZM153.404 139.48C153.383 140.653 153.564 141.635 153.948 142.424C154.332 143.213 154.855 143.843 155.516 144.312C156.199 144.781 156.999 145.123 157.916 145.336C158.834 145.528 159.815 145.624 160.86 145.624C161.458 145.624 162.108 145.539 162.812 145.368C163.516 145.197 164.167 144.931 164.764 144.568C165.383 144.184 165.895 143.704 166.3 143.128C166.706 142.531 166.908 141.816 166.908 140.984C166.908 140.344 166.759 139.789 166.46 139.32C166.183 138.851 165.81 138.456 165.34 138.136C164.892 137.816 164.391 137.56 163.836 137.368C163.282 137.155 162.738 136.984 162.204 136.856L157.116 135.608C156.455 135.437 155.804 135.224 155.164 134.968C154.546 134.712 154.002 134.371 153.532 133.944C153.063 133.517 152.679 132.995 152.38 132.376C152.103 131.757 151.964 131 151.964 130.104C151.964 129.549 152.071 128.899 152.284 128.152C152.498 127.405 152.892 126.701 153.468 126.04C154.066 125.379 154.876 124.824 155.9 124.376C156.924 123.907 158.236 123.672 159.836 123.672C160.967 123.672 162.044 123.821 163.068 124.12C164.092 124.419 164.988 124.867 165.756 125.464C166.524 126.061 167.132 126.808 167.58 127.704C168.05 128.579 168.284 129.603 168.284 130.776H166.108C166.066 129.901 165.863 129.144 165.5 128.504C165.159 127.843 164.7 127.299 164.124 126.872C163.57 126.424 162.919 126.093 162.172 125.88C161.447 125.645 160.679 125.528 159.868 125.528C159.122 125.528 158.396 125.613 157.692 125.784C157.01 125.933 156.402 126.189 155.868 126.552C155.356 126.893 154.94 127.352 154.62 127.928C154.3 128.504 154.14 129.219 154.14 130.072C154.14 130.605 154.226 131.075 154.396 131.48C154.588 131.864 154.844 132.195 155.164 132.472C155.484 132.749 155.847 132.973 156.252 133.144C156.679 133.315 157.127 133.453 157.596 133.56L163.164 134.936C163.975 135.149 164.732 135.416 165.436 135.736C166.162 136.035 166.791 136.419 167.324 136.888C167.879 137.336 168.306 137.891 168.604 138.552C168.924 139.213 169.084 140.013 169.084 140.952C169.084 141.208 169.052 141.549 168.988 141.976C168.946 142.403 168.818 142.861 168.604 143.352C168.412 143.821 168.124 144.301 167.74 144.792C167.378 145.283 166.866 145.731 166.204 146.136C165.564 146.52 164.764 146.829 163.804 147.064C162.844 147.32 161.692 147.448 160.348 147.448C159.004 147.448 157.756 147.299 156.604 147C155.452 146.68 154.471 146.2 153.66 145.56C152.85 144.92 152.22 144.099 151.772 143.096C151.346 142.093 151.164 140.888 151.228 139.48H153.404ZM189.699 124.152L197.283 144.184L205.155 124.152H208.355V147H206.179V127.256H206.115L198.307 147H196.259L188.739 127.256H188.675V147H186.499V124.152H189.699ZM218.636 138.04H227.628L223.212 126.328L218.636 138.04ZM222.092 124.152H224.524L233.484 147H231.148L228.364 139.896H217.964L215.212 147H212.908L222.092 124.152ZM257.64 147H256.072L255.784 142.84H255.72C255.336 143.651 254.856 144.355 254.28 144.952C253.726 145.528 253.107 146.008 252.424 146.392C251.742 146.755 251.006 147.021 250.216 147.192C249.448 147.363 248.648 147.448 247.816 147.448C246.024 147.448 244.446 147.128 243.08 146.488C241.736 145.827 240.616 144.952 239.72 143.864C238.824 142.776 238.152 141.517 237.704 140.088C237.256 138.659 237.032 137.155 237.032 135.576C237.032 133.997 237.256 132.493 237.704 131.064C238.152 129.635 238.824 128.376 239.72 127.288C240.616 126.179 241.736 125.304 243.08 124.664C244.446 124.003 246.024 123.672 247.816 123.672C249.011 123.672 250.142 123.832 251.208 124.152C252.275 124.472 253.224 124.952 254.056 125.592C254.888 126.232 255.592 127.021 256.168 127.96C256.744 128.899 257.139 129.997 257.352 131.256H255.176C255.112 130.595 254.888 129.933 254.504 129.272C254.142 128.589 253.64 127.971 253 127.416C252.382 126.861 251.635 126.413 250.76 126.072C249.886 125.709 248.904 125.528 247.816 125.528C246.302 125.528 245 125.816 243.912 126.392C242.824 126.968 241.928 127.736 241.224 128.696C240.542 129.635 240.03 130.701 239.688 131.896C239.368 133.091 239.208 134.317 239.208 135.576C239.208 136.813 239.368 138.04 239.688 139.256C240.03 140.451 240.542 141.528 241.224 142.488C241.928 143.427 242.824 144.184 243.912 144.76C245 145.336 246.302 145.624 247.816 145.624C249.075 145.624 250.195 145.421 251.176 145.016C252.179 144.589 253.022 144.003 253.704 143.256C254.387 142.509 254.899 141.624 255.24 140.6C255.582 139.576 255.742 138.456 255.72 137.24H247.944V135.384H257.64V147ZM267.631 138.04H276.623L272.207 126.328L267.631 138.04ZM271.087 124.152H273.519L282.479 147H280.143L277.359 139.896H266.959L264.207 147H261.903L271.087 124.152ZM285.995 124.152H302.443V126.072L287.403 145.144H302.763V147H284.971V145.08L300.011 126.008H285.995V124.152ZM308.21 124.152H310.386V147H308.21V124.152ZM317.672 124.152H320.104L333.416 143.48H333.48V124.152H335.656V147H333.224L319.912 127.672H319.848V147H317.672V124.152ZM342.795 124.152H358.571V126.008H344.971V134.264H357.707V136.12H344.971V145.144H358.731V147H342.795V124.152Z" fill="black"/>
</svg>
